ffmpeg started on 2016-12-06 at 19:27:23
Report written to "Output/x264/results/ffmpeg/sintelmedium4500k.log"
Command line:
Tools/ffmpeg/ffmpeg -benchmark -y -i Input/y4m/sintel.y4m -c:v libx264 -preset medium -b:v 4500k -an Output/x264/encoded/sintelmedium4500k.mkv
ffmpeg version N-82227-gdb23fde Copyright (c) 2000-2016 the FFmpeg developers
  built with gcc 5.4.0 (Ubuntu 5.4.0-6ubuntu1~16.04.2) 20160609
  configuration: --prefix=/home/jaroslav/ffmpeg_build --pkg-config-flags=--static --extra-cflags=-I/home/jaroslav/ffmpeg_build/include --extra-ldflags=-L/home/jaroslav/ffmpeg_build/lib --bindir=/home/jaroslav/bin --enable-gpl --enable-libass --enable-libfdk-aac --enable-libfreetype --enable-libmp3lame --enable-libopus --enable-libtheora --enable-libvorbis --enable-libvpx --enable-libx264 --enable-libx265 --enable-nvenc --enable-libmfx --enable-libxvid --enable-libgsm --enable-libopencore-amrnb --enable-version3 --enable-nonfree
  libavutil      55. 35.100 / 55. 35.100
  libavcodec     57. 66.101 / 57. 66.101
  libavformat    57. 57.100 / 57. 57.100
  libavdevice    57.  2.100 / 57.  2.100
  libavfilter     6. 66.100 /  6. 66.100
  libswscale      4.  3.100 /  4.  3.100
  libswresample   2.  4.100 /  2.  4.100
  libpostproc    54.  2.100 / 54.  2.100
Input #0, yuv4mpegpipe, from 'Input/y4m/sintel.y4m':
  Duration: 00:00:20.83, start: 0.000000, bitrate: 2057307 kb/s
    Stream #0:0: Video: rawvideo (I420 / 0x30323449), yuv420p(progressive), 4096x1744, SAR 1:1 DAR 256:109, 24 fps, 24 tbr, 24 tbn, 24 tbc
[libx264 @ 0x319a1c0] using SAR=1/1
[libx264 @ 0x319a1c0] using cpu capabilities: MMX2 SSE2Fast SSSE3 SSE4.2 AVX FMA3 AVX2 LZCNT BMI2
[libx264 @ 0x319a1c0] profile High, level 5.1
[libx264 @ 0x319a1c0] 264 - core 148 - H.264/MPEG-4 AVC codec - Copyleft 2003-2016 - http://www.videolan.org/x264.html - options: cabac=1 ref=3 deblock=1:0:0 analyse=0x3:0x113 me=hex subme=7 psy=1 psy_rd=1.00:0.00 mixed_ref=1 me_range=16 chroma_me=1 trellis=1 8x8dct=1 cqm=0 deadzone=21,11 fast_pskip=1 chroma_qp_offset=-2 threads=6 lookahead_threads=1 sliced_threads=0 nr=0 decimate=1 interlaced=0 bluray_compat=0 constrained_intra=0 bframes=3 b_pyramid=2 b_adapt=1 b_bias=0 direct=1 weightb=1 open_gop=0 weightp=2 keyint=250 keyint_min=24 scenecut=40 intra_refresh=0 rc_lookahead=40 rc=abr mbtree=1 bitrate=4500 ratetol=1.0 qcomp=0.60 qpmin=0 qpmax=69 qpstep=4 ip_ratio=1.40 aq=1:1.00
Output #0, matroska, to 'Output/x264/encoded/sintelmedium4500k.mkv':
  Metadata:
    encoder         : Lavf57.57.100
    Stream #0:0: Video: h264 (libx264) (H264 / 0x34363248), yuv420p, 4096x1744 [SAR 1:1 DAR 256:109], q=-1--1, 4500 kb/s, 24 fps, 1k tbn, 24 tbc
    Metadata:
      encoder         : Lavc57.66.101 libx264
    Side data:
      cpb: bitrate max/min/avg: 0/0/4500000 buffer size: 0 vbv_delay: -1
Stream mapping:
  Stream #0:0 -> #0:0 (rawvideo (native) -> h264 (libx264))
Press [q] to stop, [?] for help
frame=    9 fps=0.0 q=0.0 size=       0kB time=00:00:00.00 bitrate=N/A speed=   0x    frame=   18 fps= 17 q=0.0 size=       0kB time=00:00:00.00 bitrate=N/A speed=   0x    frame=   27 fps= 17 q=0.0 size=       0kB time=00:00:00.00 bitrate=N/A speed=   0x    frame=   30 fps= 14 q=0.0 size=       0kB time=00:00:00.00 bitrate=N/A speed=   0x    frame=   39 fps= 15 q=0.0 size=       0kB time=00:00:00.00 bitrate=N/A speed=   0x    frame=   47 fps=8.9 q=0.0 size=       0kB time=00:00:00.00 bitrate=N/A speed=   0x    frame=   48 fps=5.6 q=0.0 size=       0kB time=00:00:00.00 bitrate=N/A speed=   0x    frame=   49 fps=4.3 q=0.0 size=       0kB time=00:00:00.00 bitrate=N/A speed=   0x    frame=   54 fps=4.5 q=41.0 size=       1kB time=00:00:00.04 bitrate= 136.6kbits/s speed=0.00356x    frame=   57 fps=4.4 q=49.0 size=       1kB time=00:00:00.16 bitrate=  35.0kbits/s speed=0.0131x    frame=   61 fps=4.6 q=50.0 size=       1kB time=00:00:00.33 bitrate=  17.6kbits/s speed=0.025x    frame=   68 fps=4.8 q=49.0 size=       1kB time=00:00:00.62 bitrate=   9.4kbits/s speed=0.0442x    frame=   74 fps=5.0 q=49.0 size=       1kB time=00:00:00.87 bitrate=   6.7kbits/s speed=0.0595x    frame=   80 fps=5.2 q=49.0 size=       1kB time=00:00:01.12 bitrate=   5.2kbits/s speed=0.0738x    frame=   85 fps=5.4 q=48.0 size=       1kB time=00:00:01.33 bitrate=   4.4kbits/s speed=0.0844x    frame=   90 fps=5.5 q=48.0 size=       1kB time=00:00:01.54 bitrate=   3.8kbits/s speed=0.0944x    frame=   97 fps=5.6 q=47.0 size=       1kB time=00:00:01.83 bitrate=   3.2kbits/s speed=0.107x    frame=  103 fps=5.8 q=47.0 size=       1kB time=00:00:02.08 bitrate=   2.8kbits/s speed=0.118x    frame=  107 fps=5.9 q=47.0 size=       1kB time=00:00:02.25 bitrate=   2.6kbits/s speed=0.123x    frame=  112 fps=6.0 q=47.0 size=       1kB time=00:00:02.45 bitrate=   2.4kbits/s speed=0.131x    frame=  116 fps=6.0 q=46.0 size=       1kB time=00:00:02.62 bitrate=   2.2kbits/s speed=0.136x    frame=  121 fps=6.1 q=46.0 size=       1kB time=00:00:02.83 bitrate=   2.1kbits/s speed=0.143x    frame=  124 fps=6.1 q=46.0 size=       1kB time=00:00:02.95 bitrate=   2.0kbits/s speed=0.145x    frame=  130 fps=6.2 q=46.0 size=       1kB time=00:00:03.20 bitrate=   1.8kbits/s speed=0.153x    frame=  133 fps=6.2 q=46.0 size=       1kB time=00:00:03.33 bitrate=   1.8kbits/s speed=0.155x    frame=  139 fps=6.3 q=46.0 size=       1kB time=00:00:03.58 bitrate=   1.6kbits/s speed=0.162x    frame=  143 fps=6.3 q=46.0 size=       1kB time=00:00:03.75 bitrate=   1.6kbits/s speed=0.165x    frame=  151 fps=6.5 q=46.0 size=    2542kB time=00:00:04.08 bitrate=5098.4kbits/s speed=0.175x    frame=  155 fps=6.5 q=46.0 size=    2542kB time=00:00:04.25 bitrate=4898.1kbits/s speed=0.179x    frame=  160 fps=6.6 q=45.0 size=    2542kB time=00:00:04.45 bitrate=4669.6kbits/s speed=0.184x    frame=  166 fps=6.7 q=45.0 size=    2542kB time=00:00:04.70 bitrate=4421.7kbits/s speed=0.19x    frame=  172 fps=6.8 q=45.0 size=    2542kB time=00:00:04.95 bitrate=4198.8kbits/s speed=0.196x    frame=  177 fps=6.8 q=45.0 size=    2542kB time=00:00:05.16 bitrate=4029.0kbits/s speed=0.199x    frame=  182 fps=6.9 q=45.0 size=    2542kB time=00:00:05.37 bitrate=3873.1kbits/s speed=0.203x    frame=  187 fps=6.9 q=45.0 size=    2542kB time=00:00:05.58 bitrate=3728.8kbits/s speed=0.207x    frame=  193 fps=7.0 q=45.0 size=    2542kB time=00:00:05.83 bitrate=3569.0kbits/s speed=0.212x    frame=  200 fps=7.1 q=45.0 size=    2542kB time=00:00:06.12 bitrate=3398.9kbits/s speed=0.218x    frame=  209 fps=7.3 q=45.0 size=    3773kB time=00:00:06.50 bitrate=4754.5kbits/s speed=0.227x    frame=  213 fps=7.3 q=45.0 size=    3773kB time=00:00:06.66 bitrate=4635.5kbits/s speed=0.227x    frame=  220 fps=7.3 q=45.0 size=    3773kB time=00:00:06.95 bitrate=4441.6kbits/s speed=0.232x    frame=  225 fps=7.4 q=45.0 size=    3773kB time=00:00:07.16 bitrate=4312.1kbits/s speed=0.235x    frame=  230 fps=7.4 q=45.0 size=    3773kB time=00:00:07.37 bitrate=4190.5kbits/s speed=0.237x    frame=  239 fps=7.6 q=44.0 size=    4278kB time=00:00:07.75 bitrate=4520.9kbits/s speed=0.245x    frame=  243 fps=7.6 q=44.0 size=    4278kB time=00:00:07.91 bitrate=4425.6kbits/s speed=0.246x    frame=  248 fps=7.6 q=44.0 size=    4278kB time=00:00:08.12 bitrate=4312.3kbits/s speed=0.249x    frame=  254 fps=7.6 q=44.0 size=    4278kB time=00:00:08.37 bitrate=4183.6kbits/s speed=0.252x    frame=  260 fps=7.7 q=44.0 size=    4278kB time=00:00:08.62 bitrate=4062.3kbits/s speed=0.256x    frame=  267 fps=7.8 q=44.0 size=    4278kB time=00:00:08.91 bitrate=3929.3kbits/s speed=0.26x    frame=  273 fps=7.8 q=44.0 size=    4278kB time=00:00:09.16 bitrate=3822.2kbits/s speed=0.263x    frame=  280 fps=7.9 q=43.0 size=    4278kB time=00:00:09.45 bitrate=3704.6kbits/s speed=0.266x    frame=  286 fps=7.9 q=43.0 size=    4278kB time=00:00:09.70 bitrate=3609.2kbits/s speed=0.268x    frame=  293 fps=7.9 q=43.0 size=    4278kB time=00:00:10.00 bitrate=3503.8kbits/s speed=0.271x    frame=  301 fps=8.1 q=43.0 size=    4278kB time=00:00:10.33 bitrate=3390.9kbits/s speed=0.277x    frame=  308 fps=8.1 q=43.0 size=    4278kB time=00:00:10.62 bitrate=3297.7kbits/s speed=0.281x    frame=  312 fps=8.0 q=42.0 size=    4278kB time=00:00:10.79 bitrate=3246.7kbits/s speed=0.278x    frame=  322 fps=8.2 q=42.0 size=    5612kB time=00:00:11.20 bitrate=4101.8kbits/s speed=0.285x    frame=  330 fps=8.2 q=42.0 size=    5612kB time=00:00:11.54 bitrate=3983.1kbits/s speed=0.288x    frame=  338 fps=8.3 q=42.0 size=    5612kB time=00:00:11.87 bitrate=3871.4kbits/s speed=0.292x    frame=  346 fps=8.4 q=42.0 size=    5612kB time=00:00:12.20 bitrate=3765.8kbits/s speed=0.296x    frame=  355 fps=8.5 q=41.0 size=    5612kB time=00:00:12.58 bitrate=3653.6kbits/s speed=0.302x    frame=  364 fps=8.6 q=40.0 size=    5612kB time=00:00:12.95 bitrate=3547.9kbits/s speed=0.307x    frame=  370 fps=8.6 q=40.0 size=    5612kB time=00:00:13.20 bitrate=3480.7kbits/s speed=0.308x    frame=  379 fps=8.7 q=40.0 size=    5612kB time=00:00:13.58 bitrate=3384.6kbits/s speed=0.313x    frame=  388 fps=8.8 q=39.0 size=    5612kB time=00:00:13.95 bitrate=3293.7kbits/s speed=0.318x    frame=  397 fps=8.9 q=39.0 size=    5612kB time=00:00:14.33 bitrate=3207.5kbits/s speed=0.322x    frame=  405 fps=9.0 q=39.0 size=    5612kB time=00:00:14.66 bitrate=3134.5kbits/s speed=0.325x    frame=  413 fps=9.1 q=39.0 size=    6869kB time=00:00:15.00 bitrate=3751.2kbits/s speed=0.329x    frame=  418 fps=9.1 q=38.0 size=    6869kB time=00:00:15.20 bitrate=3699.9kbits/s speed=0.33x    frame=  426 fps=9.1 q=38.0 size=    6869kB time=00:00:15.54 bitrate=3620.3kbits/s speed=0.332x    frame=  434 fps=9.2 q=38.0 size=    6869kB time=00:00:15.87 bitrate=3544.4kbits/s speed=0.335x    frame=  439 fps=9.2 q=38.0 size=    6869kB time=00:00:16.08 bitrate=3498.6kbits/s speed=0.336x    frame=  446 fps=9.2 q=38.0 size=    6869kB time=00:00:16.37 bitrate=3436.2kbits/s speed=0.338x    frame=  451 fps=9.2 q=38.0 size=    6869kB time=00:00:16.58 bitrate=3393.1kbits/s speed=0.338x    frame=  458 fps=9.2 q=38.0 size=    6869kB time=00:00:16.87 bitrate=3334.4kbits/s speed=0.34x    frame=  465 fps=9.3 q=38.0 size=    6869kB time=00:00:17.16 bitrate=3277.7kbits/s speed=0.342x    frame=  474 fps=9.3 q=38.0 size=    8004kB time=00:00:17.54 bitrate=3737.5kbits/s speed=0.344x    frame=  482 fps=9.4 q=38.0 size=    8004kB time=00:00:17.87 bitrate=3667.8kbits/s speed=0.347x    frame=  490 fps=9.4 q=38.0 size=    8004kB time=00:00:18.20 bitrate=3600.8kbits/s speed=0.349x    frame=  498 fps=9.4 q=38.0 size=    8004kB time=00:00:18.54 bitrate=3535.9kbits/s speed=0.352x    frame=  500 fps=9.0 q=-1.0 Lsize=    9557kB time=00:00:20.70 bitrate=3780.6kbits/s speed=0.371x    
video:9552kB audio:0kB subtitle:0kB other streams:0kB global headers:0kB muxing overhead: 0.048785%
bench: utime=167.512s
bench: maxrss=1569840kB
[libx264 @ 0x319a1c0] frame I:8     Avg QP:33.56  size: 68230
[libx264 @ 0x319a1c0] frame P:269   Avg QP:38.89  size: 23856
[libx264 @ 0x319a1c0] frame B:223   Avg QP:37.30  size: 12637
[libx264 @ 0x319a1c0] consecutive B-frames: 37.0%  8.4%  6.6% 48.0%
[libx264 @ 0x319a1c0] mb I  I16..4: 26.8% 71.6%  1.6%
[libx264 @ 0x319a1c0] mb P  I16..4: 14.4% 26.0%  0.1%  P16..4: 12.7%  0.7%  0.3%  0.0%  0.0%    skip:45.7%
[libx264 @ 0x319a1c0] mb B  I16..4:  1.0%  1.5%  0.0%  B16..8: 22.7%  0.8%  0.1%  direct: 0.3%  skip:73.7%  L0:40.4% L1:58.8% BI: 0.8%
[libx264 @ 0x319a1c0] final ratefactor: 35.45
[libx264 @ 0x319a1c0] 8x8 transform intra:64.4% inter:94.9%
[libx264 @ 0x319a1c0] coded y,uvDC,uvAC intra: 7.5% 17.0% 0.4% inter: 2.0% 1.6% 0.0%
[libx264 @ 0x319a1c0] i16 v,h,dc,p: 33% 36%  6% 24%
[libx264 @ 0x319a1c0] i8 v,h,dc,ddl,ddr,vr,hd,vl,hu: 21% 10% 62%  1%  1%  1%  1%  1%  1%
[libx264 @ 0x319a1c0] i4 v,h,dc,ddl,ddr,vr,hd,vl,hu: 21% 26% 12%  6%  9%  7% 10%  4%  5%
[libx264 @ 0x319a1c0] i8c dc,h,v,p: 90%  5%  5%  0%
[libx264 @ 0x319a1c0] Weighted P-Frames: Y:1.1% UV:0.7%
[libx264 @ 0x319a1c0] ref P L0: 68.9% 11.2% 14.6%  5.3%  0.0%
[libx264 @ 0x319a1c0] ref B L0: 90.7%  7.7%  1.6%
[libx264 @ 0x319a1c0] ref B L1: 97.9%  2.1%
[libx264 @ 0x319a1c0] kb/s:3755.91
